<svg xmlns="http://www.w3.org/2000/svg" viewBox="0 0 210 40">
  <path d="M45.9 15.7c0-2.6-.6-3.8-4.2-3.8-3.8 0-4.2 1.3-4.2 4.8v7.4c0 3.4.6 4.8 4.2 4.8s4.2-.8 4.2-4.2h2.6c0 4.2-.4 6.8-6.8 6.8s-6.9-2.6-6.9-7.3v-7.4c0-4.8 1.1-7.3 6.9-7.3 5.6 0 6.7 2.1 6.8 6.3h-2.6v-.1zm11.6 9.5v-4.4c0-4.4 2.4-6 6.2-6s6.2 1.6 6.2 6v4.4c0 4.5-1.8 6.3-6.2 6.3-4.5 0-6.2-1.8-6.2-6.3zm9.6 0v-4.4c0-3-1.3-3.6-3.5-3.6s-3.5.6-3.5 3.6v4.4c0 3 1.1 3.9 3.5 3.9 2.5 0 3.5-.9 3.5-3.9zm26.8 6.3c-3.3 0-5.6-1.5-5.6-5.9v-4.3c0-4.4 2.1-6.4 5.6-6.4h4V9.4h2.7v22.1h-6.7zm.6-14.1c-2.4 0-3.5 1-3.5 3.9v4.3c0 2.7 1.1 3.4 3.3 3.4h3.6V17.4h-3.4z" fill="#fff"/>
  <path d="M114.7 9.4v2.4h-8.3v6.8h7.5v2.5h-7.5V29h13.4v2.5h-16.1v-22h11v-.1z" fill="#f7931e"/>
  <path d="M125.3 21.7l3.8-12.2h3.1v22h-2.7V21.3l.4-6.2-4 12.5h-1.3l-4-12.5.4 6.2v10.2h-2.7v-22h3.1l3.9 12.2zM141 9.4c3.8 0 6.2 1.5 6.2 5.9V18c0 4.5-1.7 6.3-6.2 6.3h-3.1v7.2h-2.7v-22l5.8-.1zm-3.1 2.5v9.8h3.1c2.4 0 3.5-.7 3.5-3.7v-2.7c0-3-1.1-3.2-3.5-3.4h-3.1zM150 25.2v-4.4c0-4.4 2.4-6 6.2-6s6.2 1.6 6.2 6v4.4c0 4.5-1.8 6.3-6.2 6.3-4.5 0-6.2-1.8-6.2-6.3zm9.7 0v-4.4c0-3-1.3-3.6-3.5-3.6s-3.5.6-3.5 3.6v4.4c0 3 1.1 3.9 3.5 3.9 2.5 0 3.5-.9 3.5-3.9zm39.1 1.3c0 3.2-1.7 5-6 5-4.4 0-6.1-1.6-6.1-6v-4.8c0-4.3 2.3-5.9 6.1-5.9 3.7 0 6.1 1.6 6.1 5.9v3.5h-9.5v1.2c0 2.9 1.1 3.6 3.4 3.6 2.4 0 3.4-.8 3.4-2.5h2.6zm-9.4-4.7h6.9v-1.2c0-2.9-1.4-3.5-3.5-3.5s-3.4.6-3.4 3.5v1.2zm19.9-4.1c-2.6-.4-4.5-.4-4.6 3.2v10.6H202V19s0-3 2.8-3.9c1.8-.6 4-.2 4.5-.1v2.7z" fill="#f7931e"/>
  <path d="M51.7 9.6h2.6v21.9h-2.6zm30.7 5.3v10.6c0 2.3-1.2 3.5-3.2 3.5h-.5c-1.9 0-3.2-1.2-3.2-3.5V14.9h-2.7v10.6c0 4.4 1.8 5.9 5.5 5.9h1.3c3.6 0 5.5-1.5 5.5-5.9V14.9h-2.7z" fill="#fff"/>
  <path d="M181.3 14.9v10.6c0 2.3-.5 3.5-2.4 3.5h-.5c-1.7 0-2.1-.9-2.3-2.7V14.9h-2.9v11.4c-.3 1.8-.7 2.7-2.3 2.7h-.5c-1.9 0-2.4-1.2-2.4-3.5V14.9h-2.7v10.6c0 4.4 1.8 5.9 5.5 5.9h.5c1.8 0 2.4-.4 3.3-1.2.9.9 1.5 1.2 3.3 1.2h.5c3.6 0 5.5-1.5 5.5-5.9V14.9h-2.6zm-167 5.6l4.4-2.6-4.9-2.9-4.7 2.7v5.4l4.6 2.7 5-2.8zM1 28.2l12.5 7.2v-4.7l-8.4-4.9zm12.5-17.9V5.5L.9 12.7l4.2 2.5zm13.1 2.5L14 5.5v4.8l8.4 4.9zM4.8 15.7L.7 13.3v14.5l4.1-2.5zm9.2 15v4.7l12.5-7.2-4.1-2.4z" fill="#f7931e"/>
</svg>
